<svg xmlns="http://www.w3.org/2000/svg" viewBox="0 0 385.36 192.65"><g id="Layer_2" data-name="Layer 2"><g id="Layer_1-2" data-name="Layer 1"><path d="M385.36,0H192.56V192.65h192.8V0Z" style="fill:#007abc"/><path d="M338.36,112.4V95.53h14.06V89.9H335.55a2.81,2.81,0,0,0-2.82,2.81V118h19.69V106.78h0v-5.63H344v5.63h2.8v5.62Z" style="fill:#182039"/><path d="M218.84,92.71V118h19.7V101.15H230.1v5.63h2.81v5.63h-8.44V95.52h14.07V89.89H221.65A2.81,2.81,0,0,0,218.84,92.71Z" style="fill:#182039"/><path d="M294.79,118V92.73A2.81,2.81,0,0,0,292,89.92H266.67V118h5.62V95.55h5.64L278,118h5.62l-.08-22.49h5.61V118Z" style="fill:#182039"/><path d="M324.32,84.3h14.06a2.81,2.81,0,0,0,2.81-2.81V59a2.81,2.81,0,0,0-2.81-2.81H321.51V84.3h2.81Zm11.25-22.49V78.68h-8.44V61.81Z" style="fill:#182039"/><path d="M328.54,118V92.73a2.81,2.81,0,0,0-2.82-2.81H308.85V118h5.62V95.55h8.44V118Z" style="fill:#182039"/><path d="M251.2,56.18V81.5h0A2.8,2.8,0,0,0,254,84.3h14.06a2.81,2.81,0,0,0,2.81-2.81V59a2.81,2.81,0,0,0-2.81-2.81H251.2Zm14.06,5.63V78.68h-8.44V61.81Z" style="fill:#182039"/><rect x="299.01" y="89.92" width="5.62" height="28.12" style="fill:#182039"/><path d="M301.82,84.3h16.87V78.68H304.63V56.17H299V81.49A2.81,2.81,0,0,0,301.82,84.3Z" style="fill:#182039"/><path d="M280.73,73.05h5.62l2.81,11.25h5.63L292,73.05a2.81,2.81,0,0,0,2.81-2.81V59h0A2.82,2.82,0,0,0,292,56.18H275.1V84.3h5.63Zm8.43-11.24v5.61h-8.43V61.81Z" style="fill:#182039"/><path d="M259.64,89.93H245.57a2.81,2.81,0,0,0-2.81,2.81V118h5.63V106.79h8.43V118h5.63V92.73h0A2.81,2.81,0,0,0,259.64,89.93Zm-11.25,11.24V95.55h8.43v5.62Z" style="fill:#182039"/><path d="M241.35,78.68h-5.63V56.16H230.1V78.68h-5.63V56.16h-5.63V84.3h25.33A2.81,2.81,0,0,0,247,81.49V56.16h-5.63Z" style="fill:#182039"/><rect width="192.56" height="192.65" style="fill:#fff"/><path d="M91.56,123.8a6.88,6.88,0,0,1-6.88,6.88H22.79V61.91H36.54v55H50.29v-55H64.05v55H77.8v-55H91.56Z" style="fill:#182039"/><path d="M150,75.67H115.63v41.26h20.63V103.17h-6.88V89.42H150v41.26H101.87V68.79a6.88,6.88,0,0,1,6.88-6.88H150Z" style="fill:#182039"/><path d="M178.53,80.15a.58.58,0,0,1-.65.65h-4.95a.83.83,0,0,1-.79-.45l-6.8-11.57c-.07-.12-.14-.17-.22-.16s-.12.09-.12.23l.07,11.3a.58.58,0,0,1-.66.65h-5.15a.57.57,0,0,1-.65-.65V57.41a.58.58,0,0,1,.65-.66h5a.83.83,0,0,1,.79.45l6.76,11.37a.29.29,0,0,0,.21.14c.09,0,.14-.08.14-.24l0-11.06a.58.58,0,0,1,.66-.66h5.15a.58.58,0,0,1,.65.66Z" style="fill:#182039"/><path d="M218.84,136V123.26a.29.29,0,0,1,.32-.33h2a.41.41,0,0,1,.38.21l4.78,8c0,.06.06.07.09.06s.05,0,.05-.09v-7.8c0-.22.1-.33.32-.33h2a.29.29,0,0,1,.32.33V136a.29.29,0,0,1-.32.32h-1.95a.43.43,0,0,1-.38-.23l-4.8-8q0-.08-.09-.06s0,0,0,.09V136a.28.28,0,0,1-.32.32h-2A.29.29,0,0,1,218.84,136Z" style="fill:#182039"/><path d="M240.22,125.25h-6.15c-.08,0-.11,0-.11.11v2.92c0,.08,0,.12.11.12h4a.29.29,0,0,1,.33.32v1.67a.29.29,0,0,1-.33.32h-4c-.08,0-.11,0-.11.12v3c0,.08,0,.12.11.12h6.15a.29.29,0,0,1,.33.32V136a.29.29,0,0,1-.33.32h-8.63a.29.29,0,0,1-.33-.32V123.26a.29.29,0,0,1,.33-.33h8.63a.29.29,0,0,1,.33.33v1.66A.29.29,0,0,1,240.22,125.25Z" style="fill:#182039"/><path d="M252.1,123.26v1.68a.29.29,0,0,1-.33.33h-3.3c-.08,0-.12,0-.12.11V136a.29.29,0,0,1-.32.32H246a.28.28,0,0,1-.32-.32V125.38c0-.08,0-.11-.12-.11h-3.21c-.22,0-.32-.11-.32-.33v-1.68c0-.22.1-.33.32-.33h9.44A.29.29,0,0,1,252.1,123.26Z" style="fill:#182039"/><path d="M256.71,136l-3.36-12.72a.16.16,0,0,1,0-.1q0-.27.3-.27h2.18a.31.31,0,0,1,.34.29l1.8,7.63a.08.08,0,0,0,.08.07s.06,0,.07-.07l1.72-7.63a.33.33,0,0,1,.35-.29h2.16a.33.33,0,0,1,.36.29l1.87,7.63c0,.05,0,.07.07.07s.05,0,.07-.07l1.72-7.63a.32.32,0,0,1,.34-.29h2.08a.25.25,0,0,1,.24.11.29.29,0,0,1,0,.26L266,136a.32.32,0,0,1-.36.29h-2.1a.32.32,0,0,1-.36-.29l-1.91-8.12c0-.05,0-.07-.08-.07s-.06,0-.08.07L259.37,136a.32.32,0,0,1-.35.29h-1.95A.33.33,0,0,1,256.71,136Z" style="fill:#182039"/><path d="M272.62,135.91a4.42,4.42,0,0,1-1.77-1.71,5,5,0,0,1-.63-2.53v-4.09a5,5,0,0,1,.63-2.51,4.37,4.37,0,0,1,1.77-1.69,6.09,6.09,0,0,1,5.27,0,4.37,4.37,0,0,1,1.77,1.69,5,5,0,0,1,.63,2.51v4.09a5.06,5.06,0,0,1-.63,2.54,4.29,4.29,0,0,1-1.77,1.71,5.56,5.56,0,0,1-2.64.6A5.43,5.43,0,0,1,272.62,135.91Zm4.33-2.37a2.47,2.47,0,0,0,.65-1.78v-4.2a2.53,2.53,0,0,0-.64-1.79,2.48,2.48,0,0,0-3.41,0,2.52,2.52,0,0,0-.63,1.79v4.2a2.5,2.5,0,0,0,.63,1.78,2.49,2.49,0,0,0,3.4,0Z" style="fill:#182039"/><path d="M289.57,136.06l-2.35-5.2a.13.13,0,0,0-.13-.09h-1.74a.1.1,0,0,0-.11.11V136a.29.29,0,0,1-.33.32h-2a.29.29,0,0,1-.33-.32V123.24a.29.29,0,0,1,.33-.33h5.37a4.41,4.41,0,0,1,2.15.51,3.62,3.62,0,0,1,1.43,1.42,4.31,4.31,0,0,1,.51,2.11,3.83,3.83,0,0,1-.65,2.23,3.44,3.44,0,0,1-1.8,1.32.14.14,0,0,0-.08.07.1.1,0,0,0,0,.09l2.52,5.27a.27.27,0,0,1,.06.17.16.16,0,0,1-.07.15.37.37,0,0,1-.21.06H290A.42.42,0,0,1,289.57,136.06Zm-4.33-10.7v3.21c0,.08,0,.12.11.12h2.48a1.84,1.84,0,0,0,1.31-.47,1.6,1.6,0,0,0,.51-1.23,1.68,1.68,0,0,0-.51-1.26,1.81,1.81,0,0,0-1.31-.48h-2.48C285.27,125.25,285.24,125.28,285.24,125.36Z" style="fill:#182039"/><path d="M294.56,136V123.26a.29.29,0,0,1,.33-.33h2a.29.29,0,0,1,.33.33v5.22c0,.05,0,.08,0,.09s.06,0,.09,0l4.36-5.4a.45.45,0,0,1,.4-.2h2.31a.41.41,0,0,1,.21,0,.16.16,0,0,1,.08.15.38.38,0,0,1-.1.21l-4.16,5.31s0,.09,0,.15l4.41,7.13a.27.27,0,0,1,.06.17q0,.21-.27.21h-2.31a.41.41,0,0,1-.38-.21l-3.35-5.43a.08.08,0,0,0-.08,0,.12.12,0,0,0-.09,0l-1.17,1.49a.34.34,0,0,0-.05.14V136a.29.29,0,0,1-.33.32h-2A.29.29,0,0,1,294.56,136Z" style="fill:#182039"/></g></g></svg>